<svg xmlns="http://www.w3.org/2000/svg" viewBox="0 0 48 48">
  <defs>
    <linearGradient id="g" x1="0%" y1="0%" x2="100%" y2="100%">
      <stop offset="0%" stop-color="#fdf3d0"/>
      <stop offset="45%" stop-color="#dfb046"/>
      <stop offset="100%" stop-color="#a9791a"/>
    </linearGradient>
    <linearGradient id="gs" x1="0%" y1="0%" x2="0%" y2="100%">
      <stop offset="0%" stop-color="#f4dfa0"/>
      <stop offset="100%" stop-color="#c7982c"/>
    </linearGradient>
    <linearGradient id="bg" x1="0%" y1="0%" x2="0%" y2="100%">
      <stop offset="0%" stop-color="#23201b"/>
      <stop offset="100%" stop-color="#0d0d0e"/>
    </linearGradient>
  </defs>
  <circle cx="24" cy="24" r="24" fill="url(#bg)"/>
  <circle cx="24" cy="24" r="20" fill="none" stroke="url(#g)" stroke-width="1" stroke-opacity="0.9"/>
  <path d="M15 36 L15 24 C15 17.5 18.5 13.6 24 11 C29.5 13.6 33 17.5 33 24 L33 36" fill="none" stroke="url(#gs)" stroke-width="1.7" stroke-linecap="round"/>
  <line x1="12.5" y1="36" x2="35.5" y2="36" stroke="url(#gs)" stroke-width="1.4" stroke-linecap="round"/>
  <path d="M16.5 32.5 C 19 27.5, 22 24.5, 27.5 21.5" fill="none" stroke="#fdf3d0" stroke-width="1" stroke-linecap="round" stroke-dasharray="0.2 2.6" stroke-opacity="0.85"/>
  <g transform="translate(24.2 12.4) rotate(38) scale(0.44)">
    <path d="M14.5 21.7a.5.5 0 0 0 .94-.02l6.5-19a.5.5 0 0 0-.64-.64l-19 6.5a.5.5 0 0 0-.02.94l7.93 3.18a2 2 0 0 1 1.11 1.11z" fill="url(#g)"/>
  </g>
  <path d="M33.6 13.2 l0.7 1.7 1.7 0.7 -1.7 0.7 -0.7 1.7 -0.7 -1.7 -1.7 -0.7 1.7 -0.7 Z" fill="#fdf3d0" opacity="0.9"/>
</svg>
